<mxfile host="app.diagrams.net" modified="2024-07-22T12:17:53.544Z" agent="Mozilla/5.0 (Windows NT 10.0; Win64; x64) AppleWebKit/537.36 (KHTML, like Gecko) Chrome/126.0.0.0 Safari/537.36 Edg/126.0.0.0" etag="gvQZd5Xtj4S4ZKyuKCcx" version="24.7.1" type="github">
  <diagram name="第 1 页" id="OZwSSPc_iR8LIUCca8K0">
    <mxGraphModel dx="2853" dy="1111" grid="1" gridSize="10" guides="1" tooltips="1" connect="1" arrows="1" fold="1" page="1" pageScale="1" pageWidth="827" pageHeight="1169" background="#E6E6E6" math="0" shadow="0">
      <root>
        <mxCell id="0" />
        <mxCell id="1" parent="0" />
        <mxCell id="CRnT-Z7rwzNndn9Hejsz-10" value="" style="edgeStyle=orthogonalEdgeStyle;rounded=0;orthogonalLoop=1;jettySize=auto;html=1;fontSize=15;" parent="1" source="CRnT-Z7rwzNndn9Hejsz-8" target="CRnT-Z7rwzNndn9Hejsz-9" edge="1">
          <mxGeometry relative="1" as="geometry" />
        </mxCell>
        <mxCell id="CRnT-Z7rwzNndn9Hejsz-24" value="N" style="edgeLabel;html=1;align=center;verticalAlign=middle;resizable=0;points=[];fontSize=15;" parent="CRnT-Z7rwzNndn9Hejsz-10" vertex="1" connectable="0">
          <mxGeometry x="-0.1119" y="-1" relative="1" as="geometry">
            <mxPoint x="1" as="offset" />
          </mxGeometry>
        </mxCell>
        <mxCell id="CRnT-Z7rwzNndn9Hejsz-8" value="&lt;font style=&quot;font-size: 15px;&quot;&gt;判断cnts&amp;amp;_QW_MASK是否为0，即判断是否有写者持有锁或等待&lt;/font&gt;" style="strokeWidth=2;html=1;shape=mxgraph.flowchart.decision;whiteSpace=wrap;fontSize=15;" parent="1" vertex="1">
          <mxGeometry x="-280" y="340" width="170" height="140" as="geometry" />
        </mxCell>
        <mxCell id="CRnT-Z7rwzNndn9Hejsz-16" value="" style="edgeStyle=orthogonalEdgeStyle;rounded=0;orthogonalLoop=1;jettySize=auto;html=1;fontSize=15;" parent="1" source="CRnT-Z7rwzNndn9Hejsz-9" target="CRnT-Z7rwzNndn9Hejsz-15" edge="1">
          <mxGeometry relative="1" as="geometry" />
        </mxCell>
        <mxCell id="CRnT-Z7rwzNndn9Hejsz-20" value="Y" style="edgeLabel;html=1;align=center;verticalAlign=middle;resizable=0;points=[];fontSize=15;" parent="CRnT-Z7rwzNndn9Hejsz-16" vertex="1" connectable="0">
          <mxGeometry x="-0.1111" y="-1" relative="1" as="geometry">
            <mxPoint as="offset" />
          </mxGeometry>
        </mxCell>
        <mxCell id="CRnT-Z7rwzNndn9Hejsz-22" value="" style="edgeStyle=orthogonalEdgeStyle;rounded=0;orthogonalLoop=1;jettySize=auto;html=1;fontSize=15;" parent="1" source="CRnT-Z7rwzNndn9Hejsz-9" target="CRnT-Z7rwzNndn9Hejsz-21" edge="1">
          <mxGeometry relative="1" as="geometry" />
        </mxCell>
        <mxCell id="CRnT-Z7rwzNndn9Hejsz-23" value="N" style="edgeLabel;html=1;align=center;verticalAlign=middle;resizable=0;points=[];fontSize=15;" parent="CRnT-Z7rwzNndn9Hejsz-22" vertex="1" connectable="0">
          <mxGeometry x="-0.2222" y="2" relative="1" as="geometry">
            <mxPoint as="offset" />
          </mxGeometry>
        </mxCell>
        <mxCell id="CRnT-Z7rwzNndn9Hejsz-9" value="是否是中断进入的读者" style="rhombus;whiteSpace=wrap;html=1;strokeWidth=2;fontSize=15;" parent="1" vertex="1">
          <mxGeometry x="37.5" y="370" width="140" height="80" as="geometry" />
        </mxCell>
        <mxCell id="CRnT-Z7rwzNndn9Hejsz-18" value="" style="edgeStyle=orthogonalEdgeStyle;rounded=0;orthogonalLoop=1;jettySize=auto;html=1;fontSize=15;" parent="1" source="CRnT-Z7rwzNndn9Hejsz-12" target="CRnT-Z7rwzNndn9Hejsz-17" edge="1">
          <mxGeometry relative="1" as="geometry" />
        </mxCell>
        <mxCell id="CRnT-Z7rwzNndn9Hejsz-12" value="&lt;span style=&quot;font-size: 15px;&quot;&gt;开始&lt;/span&gt;" style="strokeWidth=2;html=1;shape=mxgraph.flowchart.start_1;whiteSpace=wrap;fontSize=15;" parent="1" vertex="1">
          <mxGeometry x="-245" y="110" width="100" height="60" as="geometry" />
        </mxCell>
        <mxCell id="CRnT-Z7rwzNndn9Hejsz-15" value="在没有写者时立刻获取锁" style="whiteSpace=wrap;html=1;strokeWidth=2;fontSize=15;" parent="1" vertex="1">
          <mxGeometry x="47.5" y="510" width="120" height="60" as="geometry" />
        </mxCell>
        <mxCell id="CRnT-Z7rwzNndn9Hejsz-17" value="&lt;font style=&quot;font-size: 15px;&quot;&gt;lock-&amp;gt;cnts的reader部分&lt;/font&gt;&lt;div style=&quot;font-size: 15px;&quot;&gt;自增1&lt;/div&gt;" style="whiteSpace=wrap;html=1;strokeWidth=2;fontSize=15;" parent="1" vertex="1">
          <mxGeometry x="-255" y="220" width="120" height="60" as="geometry" />
        </mxCell>
        <mxCell id="CRnT-Z7rwzNndn9Hejsz-19" style="edgeStyle=orthogonalEdgeStyle;rounded=0;orthogonalLoop=1;jettySize=auto;html=1;entryX=0.5;entryY=0;entryDx=0;entryDy=0;entryPerimeter=0;fontSize=15;" parent="1" source="CRnT-Z7rwzNndn9Hejsz-17" target="CRnT-Z7rwzNndn9Hejsz-8" edge="1">
          <mxGeometry relative="1" as="geometry" />
        </mxCell>
        <mxCell id="CRnT-Z7rwzNndn9Hejsz-29" value="" style="edgeStyle=orthogonalEdgeStyle;rounded=0;orthogonalLoop=1;jettySize=auto;html=1;fontSize=15;" parent="1" source="CRnT-Z7rwzNndn9Hejsz-21" target="CRnT-Z7rwzNndn9Hejsz-28" edge="1">
          <mxGeometry relative="1" as="geometry" />
        </mxCell>
        <mxCell id="CRnT-Z7rwzNndn9Hejsz-21" value="&lt;font style=&quot;font-size: 15px;&quot;&gt;lock-&amp;gt;cnts的reader部分&lt;/font&gt;&lt;div style=&quot;font-size: 15px;&quot;&gt;自减1&lt;/div&gt;" style="whiteSpace=wrap;html=1;strokeWidth=2;fontSize=15;" parent="1" vertex="1">
          <mxGeometry x="267.5" y="380" width="120" height="60" as="geometry" />
        </mxCell>
        <mxCell id="CRnT-Z7rwzNndn9Hejsz-25" value="&lt;span style=&quot;font-size: 15px;&quot;&gt;返回&lt;/span&gt;" style="strokeWidth=2;html=1;shape=mxgraph.flowchart.start_1;whiteSpace=wrap;fontSize=15;" parent="1" vertex="1">
          <mxGeometry x="-88.12" y="1010" width="100" height="60" as="geometry" />
        </mxCell>
        <mxCell id="CRnT-Z7rwzNndn9Hejsz-26" style="edgeStyle=orthogonalEdgeStyle;rounded=0;orthogonalLoop=1;jettySize=auto;html=1;exitX=0.5;exitY=1;exitDx=0;exitDy=0;exitPerimeter=0;entryX=0;entryY=0.5;entryDx=0;entryDy=0;entryPerimeter=0;fontSize=15;" parent="1" source="CRnT-Z7rwzNndn9Hejsz-8" target="CRnT-Z7rwzNndn9Hejsz-25" edge="1">
          <mxGeometry relative="1" as="geometry" />
        </mxCell>
        <mxCell id="CRnT-Z7rwzNndn9Hejsz-34" value="Y" style="edgeLabel;html=1;align=center;verticalAlign=middle;resizable=0;points=[];fontSize=15;" parent="CRnT-Z7rwzNndn9Hejsz-26" vertex="1" connectable="0">
          <mxGeometry x="-0.3032" y="4" relative="1" as="geometry">
            <mxPoint as="offset" />
          </mxGeometry>
        </mxCell>
        <mxCell id="CRnT-Z7rwzNndn9Hejsz-27" style="edgeStyle=orthogonalEdgeStyle;rounded=0;orthogonalLoop=1;jettySize=auto;html=1;exitX=0.5;exitY=1;exitDx=0;exitDy=0;entryX=0.5;entryY=0;entryDx=0;entryDy=0;entryPerimeter=0;fontSize=15;" parent="1" source="CRnT-Z7rwzNndn9Hejsz-15" target="CRnT-Z7rwzNndn9Hejsz-25" edge="1">
          <mxGeometry relative="1" as="geometry" />
        </mxCell>
        <mxCell id="CRnT-Z7rwzNndn9Hejsz-33" value="" style="edgeStyle=orthogonalEdgeStyle;rounded=0;orthogonalLoop=1;jettySize=auto;html=1;fontSize=15;" parent="1" source="CRnT-Z7rwzNndn9Hejsz-28" target="CRnT-Z7rwzNndn9Hejsz-32" edge="1">
          <mxGeometry relative="1" as="geometry" />
        </mxCell>
        <mxCell id="CRnT-Z7rwzNndn9Hejsz-28" value="进入队列自旋锁排队，直到排到队头" style="whiteSpace=wrap;html=1;strokeWidth=2;fontSize=15;" parent="1" vertex="1">
          <mxGeometry x="267.5" y="510" width="120" height="60" as="geometry" />
        </mxCell>
        <mxCell id="CRnT-Z7rwzNndn9Hejsz-36" value="" style="edgeStyle=orthogonalEdgeStyle;rounded=0;orthogonalLoop=1;jettySize=auto;html=1;fontSize=15;" parent="1" source="CRnT-Z7rwzNndn9Hejsz-32" target="CRnT-Z7rwzNndn9Hejsz-35" edge="1">
          <mxGeometry relative="1" as="geometry" />
        </mxCell>
        <mxCell id="CRnT-Z7rwzNndn9Hejsz-32" value="&lt;font style=&quot;font-size: 15px;&quot;&gt;lock-&amp;gt;cnts的reader部分&lt;/font&gt;&lt;div style=&quot;font-size: 15px;&quot;&gt;自增1&lt;/div&gt;" style="whiteSpace=wrap;html=1;strokeWidth=2;fontSize=15;" parent="1" vertex="1">
          <mxGeometry x="267.5" y="630" width="120" height="60" as="geometry" />
        </mxCell>
        <mxCell id="CRnT-Z7rwzNndn9Hejsz-38" value="" style="edgeStyle=orthogonalEdgeStyle;rounded=0;orthogonalLoop=1;jettySize=auto;html=1;fontSize=15;" parent="1" source="CRnT-Z7rwzNndn9Hejsz-35" target="CRnT-Z7rwzNndn9Hejsz-37" edge="1">
          <mxGeometry relative="1" as="geometry" />
        </mxCell>
        <mxCell id="CRnT-Z7rwzNndn9Hejsz-35" value="读取lock-&amp;gt;cnts" style="whiteSpace=wrap;html=1;strokeWidth=2;fontSize=15;" parent="1" vertex="1">
          <mxGeometry x="267.5" y="750" width="120" height="60" as="geometry" />
        </mxCell>
        <mxCell id="CRnT-Z7rwzNndn9Hejsz-39" style="edgeStyle=orthogonalEdgeStyle;rounded=0;orthogonalLoop=1;jettySize=auto;html=1;exitX=1;exitY=0.5;exitDx=0;exitDy=0;entryX=1;entryY=0.5;entryDx=0;entryDy=0;fontSize=15;" parent="1" source="CRnT-Z7rwzNndn9Hejsz-37" target="CRnT-Z7rwzNndn9Hejsz-35" edge="1">
          <mxGeometry relative="1" as="geometry" />
        </mxCell>
        <mxCell id="CRnT-Z7rwzNndn9Hejsz-40" value="Y" style="edgeLabel;html=1;align=center;verticalAlign=middle;resizable=0;points=[];fontSize=15;" parent="CRnT-Z7rwzNndn9Hejsz-39" vertex="1" connectable="0">
          <mxGeometry x="-0.0059" y="1" relative="1" as="geometry">
            <mxPoint as="offset" />
          </mxGeometry>
        </mxCell>
        <mxCell id="CRnT-Z7rwzNndn9Hejsz-42" value="" style="edgeStyle=orthogonalEdgeStyle;rounded=0;orthogonalLoop=1;jettySize=auto;html=1;fontSize=15;" parent="1" source="CRnT-Z7rwzNndn9Hejsz-37" target="CRnT-Z7rwzNndn9Hejsz-41" edge="1">
          <mxGeometry relative="1" as="geometry" />
        </mxCell>
        <mxCell id="CRnT-Z7rwzNndn9Hejsz-44" value="N" style="edgeLabel;html=1;align=center;verticalAlign=middle;resizable=0;points=[];fontSize=15;" parent="CRnT-Z7rwzNndn9Hejsz-42" vertex="1" connectable="0">
          <mxGeometry x="-0.1144" y="-1" relative="1" as="geometry">
            <mxPoint as="offset" />
          </mxGeometry>
        </mxCell>
        <mxCell id="CRnT-Z7rwzNndn9Hejsz-37" value="cnts的writer部分是否为1" style="rhombus;whiteSpace=wrap;html=1;strokeWidth=2;fontSize=15;" parent="1" vertex="1">
          <mxGeometry x="236.25" y="870" width="182.5" height="80" as="geometry" />
        </mxCell>
        <mxCell id="CRnT-Z7rwzNndn9Hejsz-41" value="离开队列" style="whiteSpace=wrap;html=1;strokeWidth=2;fontSize=15;" parent="1" vertex="1">
          <mxGeometry x="267.5" y="1010" width="120" height="60" as="geometry" />
        </mxCell>
        <mxCell id="CRnT-Z7rwzNndn9Hejsz-43" style="edgeStyle=orthogonalEdgeStyle;rounded=0;orthogonalLoop=1;jettySize=auto;html=1;exitX=0;exitY=0.5;exitDx=0;exitDy=0;entryX=1;entryY=0.5;entryDx=0;entryDy=0;entryPerimeter=0;fontSize=15;" parent="1" source="CRnT-Z7rwzNndn9Hejsz-41" target="CRnT-Z7rwzNndn9Hejsz-25" edge="1">
          <mxGeometry relative="1" as="geometry" />
        </mxCell>
        <mxCell id="xUZctVfH8-e4t5c534rX-3" value="" style="edgeStyle=orthogonalEdgeStyle;rounded=0;orthogonalLoop=1;jettySize=auto;html=1;fontSize=15;" edge="1" parent="1" source="CRnT-Z7rwzNndn9Hejsz-45" target="xUZctVfH8-e4t5c534rX-2">
          <mxGeometry relative="1" as="geometry" />
        </mxCell>
        <mxCell id="CRnT-Z7rwzNndn9Hejsz-45" value="开始" style="strokeWidth=2;html=1;shape=mxgraph.flowchart.start_1;whiteSpace=wrap;fontSize=15;" parent="1" vertex="1">
          <mxGeometry x="-235" y="1450" width="100" height="60" as="geometry" />
        </mxCell>
        <mxCell id="xUZctVfH8-e4t5c534rX-1" value="&lt;span style=&quot;font-size: 15px;&quot;&gt;返回&lt;/span&gt;" style="strokeWidth=2;html=1;shape=mxgraph.flowchart.start_1;whiteSpace=wrap;fontSize=15;" vertex="1" parent="1">
          <mxGeometry x="-235" y="2175" width="100" height="60" as="geometry" />
        </mxCell>
        <mxCell id="xUZctVfH8-e4t5c534rX-5" value="" style="edgeStyle=orthogonalEdgeStyle;rounded=0;orthogonalLoop=1;jettySize=auto;html=1;fontSize=15;" edge="1" parent="1" source="xUZctVfH8-e4t5c534rX-2" target="xUZctVfH8-e4t5c534rX-4">
          <mxGeometry relative="1" as="geometry" />
        </mxCell>
        <mxCell id="xUZctVfH8-e4t5c534rX-2" value="CAS(lock-&amp;gt;cnts, 0, _QW_LOCKED)" style="whiteSpace=wrap;html=1;strokeWidth=2;fontSize=15;" vertex="1" parent="1">
          <mxGeometry x="-268.75" y="1570" width="167.5" height="70" as="geometry" />
        </mxCell>
        <mxCell id="xUZctVfH8-e4t5c534rX-35" style="edgeStyle=orthogonalEdgeStyle;rounded=0;orthogonalLoop=1;jettySize=auto;html=1;exitX=1;exitY=0.5;exitDx=0;exitDy=0;entryX=0;entryY=0.5;entryDx=0;entryDy=0;fontSize=15;" edge="1" parent="1" source="xUZctVfH8-e4t5c534rX-4" target="xUZctVfH8-e4t5c534rX-14">
          <mxGeometry relative="1" as="geometry" />
        </mxCell>
        <mxCell id="xUZctVfH8-e4t5c534rX-36" value="N" style="edgeLabel;html=1;align=center;verticalAlign=middle;resizable=0;points=[];fontSize=15;" vertex="1" connectable="0" parent="xUZctVfH8-e4t5c534rX-35">
          <mxGeometry x="-0.2504" y="1" relative="1" as="geometry">
            <mxPoint x="1" as="offset" />
          </mxGeometry>
        </mxCell>
        <mxCell id="xUZctVfH8-e4t5c534rX-4" value="返回值是否为0" style="rhombus;whiteSpace=wrap;html=1;strokeWidth=2;fontSize=15;" vertex="1" parent="1">
          <mxGeometry x="-242.5" y="1700" width="115" height="80" as="geometry" />
        </mxCell>
        <mxCell id="xUZctVfH8-e4t5c534rX-6" style="edgeStyle=orthogonalEdgeStyle;rounded=0;orthogonalLoop=1;jettySize=auto;html=1;exitX=0.5;exitY=1;exitDx=0;exitDy=0;entryX=0.5;entryY=0;entryDx=0;entryDy=0;entryPerimeter=0;fontSize=15;" edge="1" parent="1" source="xUZctVfH8-e4t5c534rX-4" target="xUZctVfH8-e4t5c534rX-1">
          <mxGeometry relative="1" as="geometry" />
        </mxCell>
        <mxCell id="xUZctVfH8-e4t5c534rX-7" value="Y" style="edgeLabel;html=1;align=center;verticalAlign=middle;resizable=0;points=[];fontSize=15;" vertex="1" connectable="0" parent="xUZctVfH8-e4t5c534rX-6">
          <mxGeometry x="0.0182" y="-1" relative="1" as="geometry">
            <mxPoint as="offset" />
          </mxGeometry>
        </mxCell>
        <mxCell id="xUZctVfH8-e4t5c534rX-16" value="" style="edgeStyle=orthogonalEdgeStyle;rounded=0;orthogonalLoop=1;jettySize=auto;html=1;entryX=0.5;entryY=0;entryDx=0;entryDy=0;entryPerimeter=0;fontSize=15;" edge="1" parent="1" source="xUZctVfH8-e4t5c534rX-14" target="xUZctVfH8-e4t5c534rX-17">
          <mxGeometry relative="1" as="geometry">
            <mxPoint x="75" y="1850" as="targetPoint" />
          </mxGeometry>
        </mxCell>
        <mxCell id="xUZctVfH8-e4t5c534rX-14" value="进入队列自旋锁排队，直到排到队头" style="whiteSpace=wrap;html=1;strokeWidth=2;fontSize=15;" vertex="1" parent="1">
          <mxGeometry x="21.880000000000003" y="1700" width="138.75" height="80" as="geometry" />
        </mxCell>
        <mxCell id="xUZctVfH8-e4t5c534rX-19" value="" style="edgeStyle=orthogonalEdgeStyle;rounded=0;orthogonalLoop=1;jettySize=auto;html=1;fontSize=15;" edge="1" parent="1" source="xUZctVfH8-e4t5c534rX-17" target="xUZctVfH8-e4t5c534rX-18">
          <mxGeometry relative="1" as="geometry" />
        </mxCell>
        <mxCell id="xUZctVfH8-e4t5c534rX-21" value="Y" style="edgeLabel;html=1;align=center;verticalAlign=middle;resizable=0;points=[];fontSize=15;" vertex="1" connectable="0" parent="xUZctVfH8-e4t5c534rX-19">
          <mxGeometry x="-0.0125" y="1" relative="1" as="geometry">
            <mxPoint as="offset" />
          </mxGeometry>
        </mxCell>
        <mxCell id="xUZctVfH8-e4t5c534rX-23" value="" style="edgeStyle=orthogonalEdgeStyle;rounded=0;orthogonalLoop=1;jettySize=auto;html=1;fontSize=15;" edge="1" parent="1" source="xUZctVfH8-e4t5c534rX-17" target="xUZctVfH8-e4t5c534rX-22">
          <mxGeometry relative="1" as="geometry" />
        </mxCell>
        <mxCell id="xUZctVfH8-e4t5c534rX-34" value="N" style="edgeLabel;html=1;align=center;verticalAlign=middle;resizable=0;points=[];fontSize=15;" vertex="1" connectable="0" parent="xUZctVfH8-e4t5c534rX-23">
          <mxGeometry x="-0.2092" y="-1" relative="1" as="geometry">
            <mxPoint as="offset" />
          </mxGeometry>
        </mxCell>
        <mxCell id="xUZctVfH8-e4t5c534rX-17" value="如果读取lock-&amp;gt;cnts到cnts的值为0，且&lt;div style=&quot;font-size: 15px;&quot;&gt;CAS(lock-&amp;gt;cnts, cnts, _QW_LOCKED)的返回值为0&lt;/div&gt;" style="strokeWidth=2;html=1;shape=mxgraph.flowchart.decision;whiteSpace=wrap;fontSize=15;fontStyle=0" vertex="1" parent="1">
          <mxGeometry x="-4.050000000000001" y="1880" width="191.55" height="110" as="geometry" />
        </mxCell>
        <mxCell id="xUZctVfH8-e4t5c534rX-18" value="离开队列" style="whiteSpace=wrap;html=1;strokeWidth=2;fontSize=15;" vertex="1" parent="1">
          <mxGeometry x="31.254999999999995" y="2175" width="120" height="60" as="geometry" />
        </mxCell>
        <mxCell id="xUZctVfH8-e4t5c534rX-20" style="edgeStyle=orthogonalEdgeStyle;rounded=0;orthogonalLoop=1;jettySize=auto;html=1;exitX=0;exitY=0.5;exitDx=0;exitDy=0;entryX=1;entryY=0.5;entryDx=0;entryDy=0;entryPerimeter=0;fontSize=15;" edge="1" parent="1" source="xUZctVfH8-e4t5c534rX-18" target="xUZctVfH8-e4t5c534rX-1">
          <mxGeometry relative="1" as="geometry" />
        </mxCell>
        <mxCell id="xUZctVfH8-e4t5c534rX-27" value="" style="edgeStyle=orthogonalEdgeStyle;rounded=0;orthogonalLoop=1;jettySize=auto;html=1;fontSize=15;" edge="1" parent="1" source="xUZctVfH8-e4t5c534rX-22" target="xUZctVfH8-e4t5c534rX-26">
          <mxGeometry relative="1" as="geometry" />
        </mxCell>
        <mxCell id="xUZctVfH8-e4t5c534rX-22" value="lock-&amp;gt;cnts与_QW_WAITING做or运算，即增加有写者等待的标志" style="whiteSpace=wrap;html=1;strokeWidth=2;fontSize=15;" vertex="1" parent="1">
          <mxGeometry x="290" y="1895" width="203.12" height="80" as="geometry" />
        </mxCell>
        <mxCell id="xUZctVfH8-e4t5c534rX-29" value="" style="edgeStyle=orthogonalEdgeStyle;rounded=0;orthogonalLoop=1;jettySize=auto;html=1;fontSize=15;" edge="1" parent="1" source="xUZctVfH8-e4t5c534rX-26" target="xUZctVfH8-e4t5c534rX-28">
          <mxGeometry relative="1" as="geometry" />
        </mxCell>
        <mxCell id="xUZctVfH8-e4t5c534rX-26" value="lock-&amp;gt;cnts等于_QW_WAITING时，读取到cnts中" style="whiteSpace=wrap;html=1;fontSize=15;strokeWidth=2;" vertex="1" parent="1">
          <mxGeometry x="317.34" y="2040" width="148.44" height="70" as="geometry" />
        </mxCell>
        <mxCell id="xUZctVfH8-e4t5c534rX-30" style="edgeStyle=orthogonalEdgeStyle;rounded=0;orthogonalLoop=1;jettySize=auto;html=1;entryX=1;entryY=0.5;entryDx=0;entryDy=0;fontSize=15;" edge="1" parent="1" source="xUZctVfH8-e4t5c534rX-28" target="xUZctVfH8-e4t5c534rX-18">
          <mxGeometry relative="1" as="geometry" />
        </mxCell>
        <mxCell id="xUZctVfH8-e4t5c534rX-31" value="Y" style="edgeLabel;html=1;align=center;verticalAlign=middle;resizable=0;points=[];fontSize=15;" vertex="1" connectable="0" parent="xUZctVfH8-e4t5c534rX-30">
          <mxGeometry x="0.0792" y="-1" relative="1" as="geometry">
            <mxPoint as="offset" />
          </mxGeometry>
        </mxCell>
        <mxCell id="xUZctVfH8-e4t5c534rX-32" style="edgeStyle=orthogonalEdgeStyle;rounded=0;orthogonalLoop=1;jettySize=auto;html=1;exitX=1;exitY=0.5;exitDx=0;exitDy=0;entryX=1;entryY=0.5;entryDx=0;entryDy=0;fontSize=15;" edge="1" parent="1" source="xUZctVfH8-e4t5c534rX-28" target="xUZctVfH8-e4t5c534rX-26">
          <mxGeometry relative="1" as="geometry" />
        </mxCell>
        <mxCell id="xUZctVfH8-e4t5c534rX-33" value="N" style="edgeLabel;html=1;align=center;verticalAlign=middle;resizable=0;points=[];fontSize=15;" vertex="1" connectable="0" parent="xUZctVfH8-e4t5c534rX-32">
          <mxGeometry x="-0.0724" y="2" relative="1" as="geometry">
            <mxPoint as="offset" />
          </mxGeometry>
        </mxCell>
        <mxCell id="xUZctVfH8-e4t5c534rX-28" value="判断CAS(lock-&amp;gt;cnts,cnts,_QW_LOCKED)的返回值是否为0" style="rhombus;whiteSpace=wrap;html=1;fontSize=15;strokeWidth=2;" vertex="1" parent="1">
          <mxGeometry x="272.34000000000003" y="2165" width="238.44" height="80" as="geometry" />
        </mxCell>
        <mxCell id="xUZctVfH8-e4t5c534rX-37" value="读锁上锁" style="rounded=0;whiteSpace=wrap;html=1;fontSize=20;" vertex="1" parent="1">
          <mxGeometry x="-580" y="540" width="210" height="80" as="geometry" />
        </mxCell>
        <mxCell id="xUZctVfH8-e4t5c534rX-38" value="写锁上锁" style="rounded=0;whiteSpace=wrap;html=1;fontSize=20;" vertex="1" parent="1">
          <mxGeometry x="-610" y="1800" width="210" height="80" as="geometry" />
        </mxCell>
      </root>
    </mxGraphModel>
  </diagram>
</mxfile>
